<svg xmlns="http://www.w3.org/2000/svg" width="1000" height="1000" viewBox="0 0 1000 1000">
  <defs>
    <style>
      .cls-1 {
        fill: #9a2629;
        fill-rule: evenodd;
      }
    </style>
  </defs>
  <path id="Smaller_Circle" data-name="Smaller Circle" class="cls-1" d="M500.875,89.357c180.111,0,326.119,146.008,326.119,326.119S680.986,741.6,500.875,741.6,174.756,595.587,174.756,415.476,320.764,89.357,500.875,89.357Zm56.23,43.517c142.258,0,257.581,115.323,257.581,257.581s-115.323,257.58-257.581,257.58-257.58-115.323-257.58-257.58S414.847,132.874,557.105,132.874Z"/>
  <path id="Smaller_Circle_copy" data-name="Smaller Circle copy" class="cls-1" d="M555.272,156.575C684.91,156.575,790,261.663,790,391.3S684.91,626.014,555.272,626.014,320.541,520.927,320.541,391.3,425.634,156.575,555.272,156.575Zm-40.462,67.35c102.385,0,185.386,83,185.386,185.386S617.2,594.7,514.81,594.7s-185.386-83-185.386-185.386S412.424,223.925,514.81,223.925Z"/>
  <path id="AssetFin" class="cls-1" d="M172.889,908.618h26.98l6.553-27.592h37.632l6.665,27.592h30.029L242.576,775.059H213.018Zm39.187-50.488,12.952-54.719,13.5,54.719H212.076Zm109.1-50.391q-15.073,0-25.105,8.611t-10.032,22.9a27.338,27.338,0,0,0,6.361,17.9q6.362,7.731,23.393,13.21,9.3,2.935,12.528,5.479t3.23,7.436q0,9.2-10.962,9.2-12.823,0-15.562-14.775L283.1,881.221q3.62,29.452,37,29.452,17.715,0,27.6-9.295a30.3,30.3,0,0,0,9.885-22.994,27.044,27.044,0,0,0-3.621-14.041,24.781,24.781,0,0,0-8.907-9.148q-5.286-3.033-16.639-7.045-10.082-3.523-13.311-6.067t-3.23-7.436q0-8.609,8.613-8.611,10.571,0,14.486,13.405l19.673-5.87q-7.146-25.832-33.474-25.832h0Zm81.923,0q-15.075,0-25.106,8.611t-10.032,22.9a27.338,27.338,0,0,0,6.362,17.9q6.362,7.731,23.392,13.21,9.3,2.935,12.528,5.479t3.23,7.436q0,9.2-10.962,9.2-12.823,0-15.562-14.775l-21.924,3.522q3.62,29.452,37,29.452,17.714,0,27.6-9.295a30.3,30.3,0,0,0,9.885-22.994,27.044,27.044,0,0,0-3.621-14.041,24.774,24.774,0,0,0-8.907-9.148q-5.285-3.033-16.639-7.045-10.082-3.523-13.311-6.067t-3.23-7.436q0-8.609,8.613-8.611,10.57,0,14.486,13.405l19.673-5.87q-7.146-25.832-33.473-25.832h0Zm114.969,12.084a37.038,37.038,0,0,0-28.106-11.986q-18.673,0-29.766,13.552t-11.1,39.285q0,22.8,10.459,36.4t30.6,13.6q32.65,0,39.2-34.442l-24.567-1.565q-1.56,16.83-14.142,16.829a11.554,11.554,0,0,1-9.46-4.484q-3.609-4.485-3.608-17.747v-5.459h51.777Q529.354,831.81,518.063,819.823Zm-40.29,28.033q0.1-21.817,12.773-21.82,12.868,0,12.871,19.08,0,0.98-.1,2.74H477.773Zm71.841-38.062H538.652v21.722h10.962V870.85q0,15.754,1.86,22.994a21.038,21.038,0,0,0,8.515,12.035q6.656,4.792,19.184,4.794a77.763,77.763,0,0,0,16.835-2.055V887.679q-4.7.2-7.831,0.2-5.873,0-8.368-2.006a7.663,7.663,0,0,1-2.936-4.99,116.464,116.464,0,0,1-.441-13.062v-36.3h18.2V809.794h-18.2V778.581l-26.818.881v30.332Zm59.8,98.824h29.362V855.782h38.466v-22.9H638.779V797.955H688.7v-22.9H609.417V908.618ZM723.442,774.374H695.45v27.3h27.992v-27.3Zm-27.8,134.244h27.6V809.794h-27.6v98.824Zm47.861,0h27.6V850.694q0-12.426,2.349-16.977t9.788-4.549a9.706,9.706,0,0,1,6.851,2.348q2.544,2.348,2.545,12.328v64.774h27.6V843.844q0-13.8-1.762-20.547a19.145,19.145,0,0,0-8.074-11.106q-6.313-4.352-16-4.354-17.912,0-24.763,15.46v-13.5H743.507v98.824Z"/>
</svg>
